<?xml version="1.0" standalone="no"?>
<!DOCTYPE svg PUBLIC "-//W3C//DTD SVG 20010904//EN"
 "http://www.w3.org/TR/2001/REC-SVG-20010904/DTD/svg10.dtd">
<svg version="1.0" xmlns="http://www.w3.org/2000/svg"
 width="320.000000pt" height="32.000000pt" viewBox="0 0 320.000000 32.000000"
 preserveAspectRatio="xMidYMid meet">

<g transform="translate(0.000000,32.000000) scale(0.100000,-0.100000)"
fill="#000000" stroke="none">
<path d="M23 306 c3 -8 1 -16 -4 -18 -6 -2 10 -18 35 -35 26 -18 46 -40 46
-48 0 -8 -20 -30 -45 -47 -49 -35 -55 -47 -26 -55 12 -3 17 -11 14 -19 -3 -8
1 -14 10 -14 16 0 43 22 49 40 2 6 16 13 31 14 14 2 33 9 42 16 8 7 29 20 47
29 17 9 42 33 55 54 l23 37 -24 0 c-14 0 -37 -5 -53 -11 -23 -8 -30 -7 -40 7
-31 42 -174 87 -160 50z"/>
<path d="M340 314 c0 -3 18 -28 40 -54 22 -26 40 -53 40 -59 0 -6 -20 -26 -45
-43 -49 -35 -55 -47 -26 -55 12 -3 17 -11 14 -19 -3 -8 1 -14 10 -14 16 0 43
22 49 40 2 6 16 13 31 14 14 2 33 9 42 16 8 7 29 20 47 29 17 9 42 33 55 54
l23 37 -24 0 c-14 0 -37 -5 -53 -11 -23 -8 -30 -7 -40 7 -26 36 -163 84 -163
58z m124 -70 c5 -14 4 -15 -9 -4 -17 14 -19 20 -6 20 5 0 12 -7 15 -16z"/>
<path d="M660 314 c0 -3 18 -28 40 -54 22 -26 40 -53 40 -59 0 -6 -20 -26 -45
-43 -49 -35 -55 -47 -26 -55 12 -3 17 -11 14 -19 -3 -8 1 -14 10 -14 16 0 43
22 49 40 2 6 16 13 31 14 14 2 33 9 42 16 8 7 29 20 47 29 17 9 42 33 55 54
l23 37 -24 0 c-14 0 -37 -5 -53 -11 -23 -8 -30 -7 -40 7 -26 36 -163 84 -163
58z m124 -70 c5 -14 4 -15 -9 -4 -17 14 -19 20 -6 20 5 0 12 -7 15 -16z"/>
<path d="M1045 276 c-17 -7 -36 -25 -42 -39 -12 -25 -11 -25 23 -20 55 9 42
-33 -21 -69 -33 -18 -41 -45 -12 -40 15 3 17 -1 12 -17 -8 -27 -5 -27 39 8 21
17 44 27 52 24 7 -3 17 2 20 11 3 9 23 20 44 26 20 5 54 25 74 44 57 54 46 69
-31 42 -43 -15 -56 -12 -66 17 -4 10 -15 17 -24 15 -10 -1 -23 0 -28 4 -6 3
-24 1 -40 -6z"/>
<path d="M1403 259 c-23 -4 -56 -18 -73 -31 l-31 -23 25 -20 26 -21 -30 -17
c-34 -21 -40 -38 -10 -30 16 4 19 2 14 -11 -8 -20 23 -22 51 -2 11 7 49 26 84
41 67 28 121 72 121 99 0 19 -4 19 -55 2 -43 -15 -65 -12 -65 10 0 8 -3 14 -7
13 -5 -1 -27 -5 -50 -10z"/>
<path d="M1855 256 c-22 -7 -46 -11 -53 -8 -18 6 -99 -38 -112 -62 -6 -11 -25
-28 -42 -37 -35 -17 -48 -39 -24 -39 10 0 16 -9 16 -22 0 -21 0 -21 15 -2 8
10 15 15 15 10 0 -5 9 -1 20 9 20 18 20 17 20 -8 0 -31 6 -33 32 -10 18 16 18
16 12 0 -3 -9 -2 -17 3 -17 13 0 43 33 43 47 0 6 25 36 55 68 73 75 73 92 0
71z"/>
<path d="M2160 250 c-123 -39 -252 -119 -215 -134 8 -3 15 -16 15 -28 1 -20 2
-21 13 -7 7 9 22 19 33 23 19 6 22 2 28 -35 6 -35 9 -39 21 -29 12 10 15 9 15
-4 0 -27 20 -8 40 38 9 22 27 50 39 60 11 11 21 25 21 33 0 7 14 27 30 43 52
51 38 65 -40 40z m-70 -125 c0 -8 -2 -15 -4 -15 -2 0 -6 7 -10 15 -3 8 -1 15
4 15 6 0 10 -7 10 -15z"/>
<path d="M2480 250 c-123 -39 -252 -119 -215 -134 8 -3 15 -16 15 -28 1 -20 2
-21 13 -8 7 8 22 20 34 27 19 11 23 10 28 -7 3 -11 1 -28 -4 -39 -18 -34 -13
-39 27 -26 37 13 62 44 62 79 0 11 25 43 55 72 78 75 74 93 -15 64z"/>
<path d="M2815 256 c-22 -7 -46 -11 -53 -8 -18 6 -99 -38 -112 -62 -6 -11 -25
-28 -42 -37 -35 -17 -48 -39 -24 -39 10 0 16 -9 16 -22 0 -21 0 -21 15 -2 8
10 15 15 15 10 0 -5 9 -1 20 9 20 18 20 17 20 -8 0 -31 6 -33 32 -10 18 16 18
16 12 0 -3 -9 -2 -17 3 -17 13 0 43 33 43 47 0 6 25 36 55 68 73 75 73 92 0
71z"/>
<path d="M3003 259 c-23 -4 -56 -18 -73 -31 l-31 -23 25 -20 26 -21 -30 -17
c-34 -21 -40 -38 -10 -30 16 4 19 2 14 -11 -8 -22 20 -21 60 3 17 10 58 29 91
42 66 26 94 52 95 87 0 12 -1 22 -2 22 -2 0 -21 -6 -43 -14 -43 -15 -65 -12
-65 10 0 8 -3 14 -7 13 -5 -1 -27 -5 -50 -10z"/>
</g>
</svg>
